#N canvas 915 119 518 719 10;
#X obj 273 -94 soundfiler;
#X obj 273 -175 symbol;
#X obj 228 -202 select 0;
#X obj 228 -249 loadbang;
#X obj 273 -144 list append \$1;
#X obj 358 -303 table \$1-1;
#X obj 358 -281 table \$1-2;
#X msg 273 -120 read -resize \$1 \$2-1 \$2-2;
#X obj 228 -225 list append \$2;
#X obj 80 256 tabread4~;
#X obj 80 80 phasor~;
#X obj 95 -31 t b f;
#X msg 95 -4 44100;
#X obj 95 21 /;
#X obj 80 173 *~;
#X obj 80 47 *;
#X obj 180 256 tabread4~;
#X obj 115 169 loadbang;
#X obj 80 329 throw~ L;
#X obj 180 329 throw~ R;
#X obj 95 142 sig~;
#X obj 273 -68 t f f;
#X obj 80 306 *~;
#X obj 180 306 *~;
#X obj 303 265 r \$1-vol;
#X obj 80 -73 r speed;
#X msg 115 231 set \$1-1;
#X msg 227 231 set \$1-2;
#X obj 115 194 symbol \$1;
#X obj 119 50 r reset;
#X obj 303 289 lop~ 0.1;
#X connect 0 0 21 0;
#X connect 1 0 4 0;
#X connect 2 1 1 0;
#X connect 3 0 8 0;
#X connect 4 0 7 0;
#X connect 7 0 0 0;
#X connect 8 0 2 0;
#X connect 9 0 22 0;
#X connect 10 0 14 0;
#X connect 11 0 12 0;
#X connect 11 1 13 1;
#X connect 12 0 13 0;
#X connect 13 0 15 1;
#X connect 14 0 9 0;
#X connect 14 0 16 0;
#X connect 15 0 10 0;
#X connect 16 0 23 0;
#X connect 17 0 28 0;
#X connect 20 0 14 1;
#X connect 21 0 11 0;
#X connect 21 1 20 0;
#X connect 22 0 18 0;
#X connect 23 0 19 0;
#X connect 24 0 30 0;
#X connect 25 0 15 0;
#X connect 26 0 9 0;
#X connect 27 0 16 0;
#X connect 28 0 26 0;
#X connect 28 0 27 0;
#X connect 29 0 10 1;
#X connect 30 0 23 1;
#X connect 30 0 22 1;
