#N canvas 550 265 586 496 10;
#X declare -path abs;
#X declare -path rj;
#X obj 83 56 dumpOSC 8080;
#X text 162 56 // JSON data comes in via OSC;
#N canvas 154 22 1286 694 sounds 0;
#X obj 871 489 s speed;
#X msg 813 447 1;
#X obj 439 71 bng 15 250 50 0 empty empty empty 17 7 0 10 -262144 -1
-1;
#X obj 438 100 s reset;
#X msg 461 73 0;
#X obj 554 349 hradio 15 1 0 10 empty empty empty 0 -8 0 10 -262144
-1 -1 0;
#X obj 710 349 hradio 15 1 0 10 empty empty empty 0 -8 0 10 -262144
-1 -1 0;
#X floatatom 635 375 5 0 0 0 - - -;
#X floatatom 742 399 5 0 0 0 - - -;
#X obj 554 370 loops drums;
#X obj 710 370 loops synth;
#X obj 1066 301 r ele-range;
#X obj 554 325 tabread drums;
#X obj 710 327 tabread synth;
#X obj 554 109 r tick;
#X obj 1051 218 tabread ele;
#X obj 1051 274 -;
#X obj 1066 250 r ele-low;
#X obj 1051 324 /;
#X obj 554 278 div 9;
#X obj 596 278 mod 9;
#X obj 554 255 t f f;
#X obj 871 220 tabread speed;
#X obj 871 270 -;
#X obj 871 320 /;
#X obj 886 246 r speed-low;
#X obj 886 297 r speed-range;
#X obj 554 231 tabread zone;
#X floatatom 519 273 5 0 0 0 - - -;
#X floatatom 922 363 5 0 0 0 - - -;
#X floatatom 830 257 5 0 0 0 - - -;
#X floatatom 902 268 5 0 0 0 - - -;
#X floatatom 900 320 5 0 0 0 - - -;
#X obj 81 635 u_sampleplay synth-9 ../audio/Fast/Synth/WSk3PickBassA130A-02.wav
;
#X obj 496 195 random 81;
#X obj 496 166 sel 0;
#X floatatom 537 168 5 0 0 0 - - -;
#X obj 496 144 mod 20;
#X obj 1051 407 s elevation;
#X floatatom 885 398 5 0 0 0 - - -;
#X obj 948 435 vsl 15 128 0.8 1.2 0 0 empty empty empty 0 -9 0 10 -262144
-1 -1 0 1;
#X text 962 490 <-- 1;
#X text 962 426 <-- 1.1;
#X text 962 553 <-- 0.9;
#X obj 1051 350 + 0.5;
#X obj 1058 469 vsl 15 128 0.8 1.2 0 0 empty empty empty 0 -9 0 10
-262144 -1 -1 0 1;
#X text 1072 524 <-- 1;
#X text 1072 460 <-- 1.1;
#X text 1072 587 <-- 0.9;
#X floatatom 1018 426 5 0 0 0 - - -;
#X obj 81 342 u_sampleplay drums-9 ../audio/Fast/Drums/NRGK4Drums130-06.wav
;
#X obj 81 117 u_sampleplay drums-1 ../audio/Fast/Drums/NRGK4Drums130-02.wav
;
#X obj 81 150 u_sampleplay drums-2 ../audio/Fast/Drums/NRGK4DrumsFXa130-01.wav
;
#X obj 81 183 u_sampleplay drums-3 ../audio/Fast/Drums/NRGK4DrumsFXb130-01.wav
;
#X obj 81 216 u_sampleplay drums-4 ../audio/Fast/Drums/Postman.wav
;
#X obj 81 236 u_sampleplay drums-5 ../audio/Fast/Drums/Round_Pumper.wav
;
#X obj 81 397 u_sampleplay synth-1 ../audio/Fast/Synth/NRGK4Arp130D-05.wav
;
#X obj 81 470 u_sampleplay synth-4 ../audio/Fast/Synth/NRGK4ObBass130D-01.wav
;
#X obj 81 503 u_sampleplay synth-5 ../audio/Fast/Synth/NRGK4ObBass130D-03.wav
;
#X obj 81 417 u_sampleplay synth-2 ../audio/Fast/Synth/NRGK4MiniLead130D-05.wav
;
#X obj 81 536 u_sampleplay synth-6 ../audio/Fast/Synth/NRGK4ShBass130D-03.wav
;
#X obj 81 569 u_sampleplay synth-7 ../audio/Fast/Synth/NRGK4ShBass130D-05.wav
;
#X obj 81 602 u_sampleplay synth-8 ../audio/Fast/Synth/NRGK4StrringMach130D-01.wav
;
#X obj 81 276 u_sampleplay drums-7 ../audio/Fast/Drums/NRGK2Drums130-01.wav
;
#X obj 81 309 u_sampleplay drums-8 ../audio/Fast/Drums/NRGK2Drums130-04.wav
;
#X obj 81 256 u_sampleplay drums-6 ../audio/Fast/Drums/Hard_Philter1.wav
;
#X obj 81 450 u_sampleplay synth-3 ../audio/Fast/Synth/NRGK1ARPb_D#12.wav
;
#X obj 871 372 + 0.95;
#X obj 871 347 * 0.1;
#X connect 1 0 0 0;
#X connect 2 0 3 0;
#X connect 4 0 3 0;
#X connect 5 0 7 0;
#X connect 5 0 9 0;
#X connect 6 0 8 0;
#X connect 6 0 10 0;
#X connect 11 0 18 1;
#X connect 12 0 5 0;
#X connect 13 0 6 0;
#X connect 14 0 15 0;
#X connect 14 0 22 0;
#X connect 14 0 27 0;
#X connect 15 0 16 0;
#X connect 16 0 18 0;
#X connect 17 0 16 1;
#X connect 18 0 44 0;
#X connect 19 0 12 0;
#X connect 20 0 13 0;
#X connect 21 0 19 0;
#X connect 21 0 20 0;
#X connect 22 0 23 0;
#X connect 22 0 30 0;
#X connect 23 0 24 0;
#X connect 24 0 29 0;
#X connect 24 0 68 0;
#X connect 25 0 23 1;
#X connect 25 0 31 0;
#X connect 26 0 24 1;
#X connect 26 0 32 0;
#X connect 27 0 21 0;
#X connect 27 0 28 0;
#X connect 34 0 21 0;
#X connect 35 0 34 0;
#X connect 37 0 35 0;
#X connect 37 0 36 0;
#X connect 44 0 49 0;
#X connect 44 0 38 0;
#X connect 67 0 39 0;
#X connect 67 0 40 0;
#X connect 67 0 0 0;
#X connect 68 0 67 0;
#X restore 83 364 pd sounds;
#X obj 62 20 declare -path abs;
#N canvas 0 22 625 630 io 0;
#X obj 35 84 catch~ L;
#X obj 114 84 catch~ R;
#X obj 35 584 dac~;
#X obj 35 384 e_reslop;
#X obj 321 63 vsl 15 100 0 100 0 0 empty empty q_(peakiness) 0 -9 1
10 -262144 -1 -1 0 1;
#X floatatom 321 200 5 0 0 0 - - -;
#X msg 483 218 dry \$1;
#X msg 243 226 freq \$1;
#X msg 321 226 q \$1;
#X obj 114 384 e_reslop;
#X obj 35 524 *~;
#X obj 114 524 *~;
#X obj 314 401 lop~ 10;
#X floatatom 377 441 5 0 0 0 - - -;
#X floatatom 198 227 5 0 0 0 - - -;
#X obj 246 16 vsl 15 128 0 1 0 0 empty empty empty 0 -9 0 10 -262144
-1 -1 0 1;
#X obj 314 280 -;
#X obj 314 257 swap 1;
#X msg 371 376 1;
#X obj 440 44 r elevation;
#X obj 554 65 vsl 15 128 0 1 0 0 empty empty empty 0 -9 0 10 -262144
-1 -1 0 1;
#X obj 314 343 * 8;
#X obj 243 180 * 5000;
#X obj 376 263 * 11;
#X obj 314 365 + 1;
#X obj 243 203 + 300;
#X obj 310 307 pow 2;
#N canvas 0 22 960 399 del 0;
#X obj 420 104 delwrite~ del-r 1150;
#X obj 187 105 delwrite~ del-l 1200;
#X obj 124 105 *~ 0.75;
#X obj 354 102 *~ 0.75;
#X obj 354 124 hip~ 1000;
#X obj 124 126 hip~ 1000;
#X obj 124 161 delwrite~ del-l-del 1000;
#X obj 124 213 *~ 1.4;
#X obj 354 213 *~ 1.4;
#X obj 195 68 inlet~;
#X obj 418 67 inlet~;
#X obj 125 249 outlet~;
#X obj 354 245 outlet~;
#X obj 187 126 delread~ del-l 230.7;
#X obj 420 124 delread~ del-r 115;
#X obj 124 181 delread~ del-l-del 115;
#X connect 2 0 5 0;
#X connect 3 0 4 0;
#X connect 4 0 0 0;
#X connect 4 0 8 0;
#X connect 5 0 1 0;
#X connect 5 0 6 0;
#X connect 7 0 11 0;
#X connect 8 0 12 0;
#X connect 9 0 1 0;
#X connect 10 0 0 0;
#X connect 13 0 2 0;
#X connect 14 0 3 0;
#X connect 15 0 7 0;
#X restore 360 551 pd del;
#X obj 355 521 *~;
#X obj 386 519 *~;
#X obj 417 491 lop~ 10;
#X floatatom 432 456 5 0 0 0 - - -;
#X obj 397 333 -;
#X obj 397 310 swap 1;
#X floatatom 421 365 5 0 0 0 - - -;
#X floatatom 491 182 5 0 0 0 - - -;
#X obj 243 157 t f f f f;
#X floatatom 278 120 5 0 0 0 - - -;
#X obj 395 148 * 5;
#X obj 397 175 - 4;
#X obj 394 202 max 0;
#X floatatom 399 225 5 0 0 0 - - -;
#X floatatom 446 122 5 0 0 0 - - -;
#X obj 431 73 min 1;
#X floatatom 414 32 5 0 0 0 - - -;
#X obj 483 426 loadbang;
#X msg 485 453 1;
#X obj 144 594 writesf~ 2;
#X msg 200 558 open journey1.wav;
#X msg 172 536 start;
#X obj 179 483 r start-recording;
#X obj 179 509 t b b;
#X msg 242 525 stop;
#X connect 0 0 3 0;
#X connect 1 0 9 0;
#X connect 3 0 10 0;
#X connect 3 0 28 0;
#X connect 4 0 5 0;
#X connect 5 0 8 0;
#X connect 6 0 9 1;
#X connect 6 0 3 1;
#X connect 7 0 3 1;
#X connect 7 0 9 1;
#X connect 8 0 3 1;
#X connect 8 0 9 1;
#X connect 9 0 11 0;
#X connect 9 0 29 0;
#X connect 10 0 2 0;
#X connect 10 0 47 0;
#X connect 11 0 2 1;
#X connect 11 0 47 1;
#X connect 12 0 11 1;
#X connect 12 0 10 1;
#X connect 15 0 36 0;
#X connect 16 0 23 0;
#X connect 16 0 26 0;
#X connect 17 0 16 0;
#X connect 17 1 16 1;
#X connect 18 0 12 0;
#X connect 19 0 43 0;
#X connect 21 0 24 0;
#X connect 22 0 25 0;
#X connect 23 0 5 0;
#X connect 24 0 12 0;
#X connect 24 0 13 0;
#X connect 25 0 7 0;
#X connect 25 0 14 0;
#X connect 26 0 21 0;
#X connect 27 0 10 0;
#X connect 27 1 11 0;
#X connect 28 0 27 0;
#X connect 29 0 27 1;
#X connect 30 0 29 1;
#X connect 30 0 28 1;
#X connect 31 0 30 0;
#X connect 32 0 30 0;
#X connect 32 0 34 0;
#X connect 33 0 32 0;
#X connect 33 1 32 1;
#X connect 35 0 6 0;
#X connect 36 0 22 0;
#X connect 36 1 17 0;
#X connect 36 2 33 0;
#X connect 36 3 38 0;
#X connect 38 0 39 0;
#X connect 39 0 40 0;
#X connect 40 0 41 0;
#X connect 40 0 6 0;
#X connect 43 0 36 0;
#X connect 43 0 42 0;
#X connect 44 0 43 0;
#X connect 45 0 46 0;
#X connect 46 0 30 0;
#X connect 48 0 47 0;
#X connect 49 0 47 0;
#X connect 50 0 51 0;
#X connect 51 0 49 0;
#X connect 51 1 48 0;
#X connect 52 0 47 0;
#X restore 83 343 pd io;
#X obj 234 359 table speed 300;
#X obj 234 379 table zone 300;
#X obj 83 312 tabwrite speed;
#X obj 164 268 f;
#X obj 191 268 + 1;
#X msg 179 247 0;
#X obj 83 233 t f b;
#X obj 312 269 f;
#X obj 338 269 + 1;
#X obj 237 234 t f b;
#X obj 470 269 f;
#X obj 497 269 + 1;
#X obj 395 234 t f b;
#X obj 237 313 tabwrite zone;
#X obj 196 291 sel 299;
#X obj 196 314 bng 15 250 50 0 empty empty empty 17 7 0 10 -262144
-1 -1;
#X obj 246 135 s ele-range;
#X obj 301 157 s ele-low;
#X obj 395 313 tabwrite ele;
#X obj 234 399 table ele 300;
#N canvas 73 621 264 244 timebase 0;
#X obj 85 78 tgl 15 0 empty empty empty 17 7 0 10 -262144 -1 -1 0 1
;
#X obj 85 99 metro 1000;
#X obj 124 122 + 1;
#X obj 85 188 s tick;
#X floatatom 148 197 5 0 0 0 - - -;
#X obj 85 152 mod 300;
#X obj 85 50 r go;
#X msg 126 66 120;
#X obj 85 122 f 0;
#X connect 0 0 1 0;
#X connect 1 0 8 0;
#X connect 2 0 8 1;
#X connect 5 0 3 0;
#X connect 5 0 4 0;
#X connect 6 0 0 0;
#X connect 7 0 8 1;
#X connect 8 0 2 0;
#X connect 8 0 5 0;
#X restore 83 385 pd timebase;
#N canvas 0 22 450 300 random-grid 0;
#X obj 69 31 c_urn 9;
#X obj 69 150 table drums;
#X obj 69 6 until;
#X obj 129 29 bng 15 250 50 0 empty empty empty 17 7 0 10 -262144 -1
-1;
#X obj 150 105 f;
#X obj 177 105 + 1;
#X obj 69 80 t f b;
#X obj 69 129 tabwrite drums;
#X msg 108 55 clear \, bang;
#X msg 69 -18 81;
#X msg 161 77 0;
#X obj 209 32 c_urn 9;
#X obj 269 30 bng 15 250 50 0 empty empty empty 17 7 0 10 -262144 -1
-1;
#X obj 290 106 f;
#X obj 317 106 + 1;
#X obj 209 81 t f b;
#X msg 248 56 clear \, bang;
#X msg 301 78 0;
#X obj 209 151 table synth;
#X obj 209 130 tabwrite synth;
#X obj 69 -40 loadbang;
#X connect 0 0 6 0;
#X connect 0 1 8 0;
#X connect 0 1 3 0;
#X connect 2 0 0 0;
#X connect 2 0 11 0;
#X connect 4 0 5 0;
#X connect 4 0 7 1;
#X connect 5 0 4 1;
#X connect 6 0 7 0;
#X connect 6 1 4 0;
#X connect 8 0 0 0;
#X connect 9 0 2 0;
#X connect 10 0 4 1;
#X connect 11 0 15 0;
#X connect 11 1 16 0;
#X connect 11 1 12 0;
#X connect 13 0 14 0;
#X connect 13 0 19 1;
#X connect 14 0 13 1;
#X connect 15 0 19 0;
#X connect 15 1 13 0;
#X connect 16 0 11 0;
#X connect 17 0 13 1;
#X connect 20 0 9 0;
#X restore 83 406 pd random-grid;
#X obj 83 87 OSCroute /speed /zone /ele /ele-range /ele-low /speed-range
/speed-low;
#X obj 335 128 s speed-range;
#X obj 391 150 s speed-low;
#X floatatom 368 174 5 0 0 0 - - -;
#X floatatom 420 177 5 0 0 0 - - -;
#X obj 409 360 bng 30 250 50 0 empty empty empty 17 7 0 10 -204786
-1 -1;
#X obj 477 420 s go;
#X obj 452 399 t b b;
#X obj 447 447 s start-recording;
#X obj 182 20 declare -path rj;
#X connect 0 0 27 0;
#X connect 8 0 9 0;
#X connect 8 0 7 1;
#X connect 8 0 19 0;
#X connect 9 0 8 1;
#X connect 10 0 8 1;
#X connect 10 0 12 1;
#X connect 10 0 15 1;
#X connect 11 0 7 0;
#X connect 11 1 8 0;
#X connect 12 0 13 0;
#X connect 12 0 18 1;
#X connect 13 0 12 1;
#X connect 14 0 18 0;
#X connect 14 1 12 0;
#X connect 15 0 16 0;
#X connect 15 0 23 1;
#X connect 16 0 15 1;
#X connect 17 0 23 0;
#X connect 17 1 15 0;
#X connect 19 0 10 0;
#X connect 19 0 20 0;
#X connect 27 0 11 0;
#X connect 27 1 14 0;
#X connect 27 2 17 0;
#X connect 27 3 21 0;
#X connect 27 4 22 0;
#X connect 27 5 28 0;
#X connect 27 5 30 0;
#X connect 27 6 29 0;
#X connect 27 6 31 0;
#X connect 32 0 34 0;
#X connect 34 0 35 0;
#X connect 34 1 33 0;
